<?xml version="1.0" encoding="UTF-8" standalone="no"?>
<!-- Generator: Adobe Illustrator 18.1.1, SVG Export Plug-In . SVG Version: 6.00 Build 0)  -->

<svg
   xmlns:dc="http://purl.org/dc/elements/1.1/"
   xmlns:cc="http://creativecommons.org/ns#"
   xmlns:rdf="http://www.w3.org/1999/02/22-rdf-syntax-ns#"
   xmlns:svg="http://www.w3.org/2000/svg"
   xmlns="http://www.w3.org/2000/svg"
   xmlns:sodipodi="http://sodipodi.sourceforge.net/DTD/sodipodi-0.dtd"
   xmlns:inkscape="http://www.inkscape.org/namespaces/inkscape"
   version="1.1"
   id="Capa_1"
   x="0px"
   y="0px"
   viewBox="0 0 32.000001 32.000001"
   xml:space="preserve"
   sodipodi:docname="icon.svg"
   width="32"
   height="32"
   inkscape:version="0.92.4 (5da689c313, 2019-01-14)"><metadata
   id="metadata3789"><rdf:RDF><cc:Work
       rdf:about=""><dc:format>image/svg+xml</dc:format><dc:type
         rdf:resource="http://purl.org/dc/dcmitype/StillImage" /><dc:title></dc:title></cc:Work></rdf:RDF></metadata><defs
   id="defs3787" /><sodipodi:namedview
   pagecolor="#ffffff"
   bordercolor="#666666"
   borderopacity="1"
   objecttolerance="10"
   gridtolerance="10"
   guidetolerance="10"
   inkscape:pageopacity="0"
   inkscape:pageshadow="2"
   inkscape:window-width="1920"
   inkscape:window-height="1017"
   id="namedview3785"
   showgrid="false"
   inkscape:zoom="8.9733939"
   inkscape:cx="10.820927"
   inkscape:cy="-0.099920285"
   inkscape:window-x="-8"
   inkscape:window-y="-8"
   inkscape:window-maximized="1"
   inkscape:current-layer="Capa_1" />
<path
   style="fill:#ffffff;fill-opacity:1;stroke-width:0.01578409"
   d="m 15.387271,29.159671 c 0,1.6327 -1.18981,2.9564 -2.65753,2.9564 -1.46772,0 -2.65751,-1.3237 -2.65751,-2.9564 0,-1.6328 1.18981,-2.9564 2.65753,-2.9564 1.46772,0 2.65751,1.3236 2.65751,2.9564 z m 8.10296,-2.9564 c -1.4677,0 -2.65752,1.3236 -2.65752,2.9564 0,1.6328 1.18982,2.9564 2.65752,2.9564 1.4677,0 2.65752,-1.3236 2.65752,-2.9564 -10e-6,-1.6328 -1.18982,-2.9564 -2.65752,-2.9564 z m 8.24917,-13.8786 -3.27002,10.8123 c 0,0 -0.27069,1.6045 -1.64985,1.6045 -1.37915,0 -14.8663,0 -16.51218,0 -1.6458798,0 -1.7150498,-2.0112 -1.7150498,-2.0112 0,0 -1.75454,-14.4809001 -1.84148,-15.3557001 -0.087,-0.8748 -1.09264,-1.5233 -1.09264,-1.5233 l -4.32712,-2.2486 c -2.36905,-1.3782 -1.29220998,-4.00049998 0,-3.39819998 5.48694,2.87949998 8.03578,4.29719998 8.19979,5.43139998 0.16597,1.1364 0.45444,3.873 0.45444,3.873 v 0.018 c 0.0336,-0.011 0.0573,-0.018 0.0573,-0.018 0,0 16.82634,0 20.22481,0 2.44215,0 1.472,2.8202001 1.472,2.8158001 z m -4.73019,6.0205 h -0.0336 -16.00832 l 0.32996,2.9102 h 14.93349 z m 1.55895,-5.8689 h -18.26279 l 0.35171,3.1103 c 3.50318,0 13.7618,0 17.08518,0 z"
   id="path3752"
   inkscape:connector-curvature="0" />
<g
   id="g3754"
   transform="translate(0,-2106.3269)">
</g>
<g
   id="g3756"
   transform="translate(0,-2106.3269)">
</g>
<g
   id="g3758"
   transform="translate(0,-2106.3269)">
</g>
<g
   id="g3760"
   transform="translate(0,-2106.3269)">
</g>
<g
   id="g3762"
   transform="translate(0,-2106.3269)">
</g>
<g
   id="g3764"
   transform="translate(0,-2106.3269)">
</g>
<g
   id="g3766"
   transform="translate(0,-2106.3269)">
</g>
<g
   id="g3768"
   transform="translate(0,-2106.3269)">
</g>
<g
   id="g3770"
   transform="translate(0,-2106.3269)">
</g>
<g
   id="g3772"
   transform="translate(0,-2106.3269)">
</g>
<g
   id="g3774"
   transform="translate(0,-2106.3269)">
</g>
<g
   id="g3776"
   transform="translate(0,-2106.3269)">
</g>
<g
   id="g3778"
   transform="translate(0,-2106.3269)">
</g>
<g
   id="g3780"
   transform="translate(0,-2106.3269)">
</g>
<g
   id="g3782"
   transform="translate(0,-2106.3269)">
</g>
</svg>